<?xml version="1.0" encoding="UTF-8"?>
<svg id="_圖層_1" data-name="圖層 1" xmlns="http://www.w3.org/2000/svg" viewBox="0 0 1014.28 426.24">
  <defs>
    <style>
      .cls-1 {
        fill: #999;
        opacity: .66;
      }

      .cls-1, .cls-2, .cls-3, .cls-4 {
        isolation: isolate;
      }

      .cls-2 {
        fill: #ba8e9d;
        opacity: .84;
      }

      .cls-5 {
        fill: #cc2560;
      }

      .cls-6 {
        fill: #e6e6e6;
      }

      .cls-7 {
        fill: #e7e7e7;
      }

      .cls-3 {
        fill: #858585;
        opacity: .58;
      }

      .cls-4 {
        fill: #9e9e9e;
        opacity: .69;
      }

      .cls-8 {
        fill: #e8e8e8;
      }
    </style>
  </defs>
  <g id="_cc2560ff" data-name="#cc2560ff">
    <path class="cls-5" d="M901.07,6.79c1.85-3.18,4.65-6.84,8.7-6.79,4.78,.89,6.24,6.3,5.23,10.48-2.67,16.27-9.82,31.33-15.48,46.71-3.87,.03-7.74,.05-11.6,.03,1.94-9.71,2.84-19.67,5.99-29.12,1.79-7.27,3.78-14.59,7.16-21.31Z"/>
    <path class="cls-5" d="M944.56,67.19c4.53-3.46,11.61-5.06,16.15-.76,4.26,3.34,3.97,9.15,3.75,14.02-.01,5.53-3.15,10.3-5.17,15.26-4.98,11.57-13.08,21.7-23.08,29.33-.96,2.67,2.4,4.27,4.26,5.44,5.2,1.41,10.82,.29,15.69-1.86,16.81-7.26,30.81-19.37,44.55-31.18,2.55-2.05,3.08-5.47,4.95-8.01,1.75-.92,3.88-.45,5.81-.64,1.16,1.74,3.08,3.33,2.78,5.64,.12,3.26-2.4,5.83-4.55,7.97-12.72,11.05-25.55,22.23-40.24,30.62-9.03,4.66-19.07,9.45-29.5,7.56-5.75-1.28-9.79-5.64-13.64-9.74-3.7,.07-7.59,2.24-11.13,.31-2.64-1.03-5.41-4.63-3.08-7.22,2.15-3.62,6.89-1.57,10.31-2.14-.34-7.69-1.17-15.68,1.68-23.04,4.19-11.87,10.13-23.88,20.46-31.56m-4.78,20.3c-4.79,8.59-9.15,18.24-8.19,28.29,10.51-7.06,16.96-18.63,21.52-30.15,1.36-3.91,3.23-8.38,.89-12.32-6.53,2.47-10.85,8.36-14.22,14.18Z"/>
    <path class="cls-5" d="M880.56,75.83c5.28-.07,10.57-.08,15.86-.08-1.7,11.15-1.05,22.46-1.07,33.7,.93,8.81,.89,17.89,4.12,26.29,.95,2.77,2.09,6.72-.45,8.94-1.51,.67-3.22,.51-4.78,.22-2.22-1.6-3.19-4.28-4.44-6.6,1.82-1.71,3.67-3.4,5.52-5.08-2.36-1.25-4.71-2.53-7.25-3.34-.44-6.14-1.11-12.25-1.54-18.39-.58-8.51,.12-17.05-.44-25.56-.8,1.21-1.58,2.42-2.29,3.67-5.02,9.38-10.8,18.33-16.97,26.99-3.26,4.33-7.23,8.23-9.26,13.35-5.02,.06-10.03,.08-15.04,.05,2.23-2.51,4.83-4.74,6.63-7.6,.9-6.23,.65-13.69-4-18.48-3.32-.99-6.34,1.19-8.81,3.1-7.72,6.38-13.95,14.42-18.93,23.07-3.67,.02-7.33,.02-10.98,0,6.12-12.1,14.4-23.3,25.09-31.74,4.55-3.59,10.69-5.93,16.43-3.98,6.19,3.09,9.49,9.69,10.81,16.22,8.94-10.46,14.62-23.13,21.79-34.76Z"/>
    <path class="cls-5" d="M751.88,76.61c4.67-.35,9.37-.32,14.07-.29-14.83,12.91-28.31,27.26-41.78,41.55-5.56,5.6-10.66,11.63-15.5,17.86-.99,1.09-1.95,2.21-2.85,3.38-2.89,4.16-6.56,7.97-8.25,12.82-1.62,7.08-1.02,14.42-2.17,21.57-.54,3.97-.49,9.09-4.45,11.36-3.66,2.69-8.15-1.1-9.24-4.71-1.73-6.88-.56-14.09,.75-20.95-10.82,8.78-21.15,18.14-31.71,27.24-2.43,2.18-4.96,4.36-6.71,7.15,1.51-6.02,2.9-12.07,4.6-18.04,4.17-4.24,9.08-7.69,13.44-11.73,8.42-7.77,18.06-14.41,25.28-23.35,.2-10.67,.03-21.36-.3-32.03-.51-6.13-2.17-13.49,1.97-18.7,2.58-3.93,8.78-.52,8.09,3.65-.75,4.31-1.17,8.68-.73,13.06,1.31,9.01,.59,18.14,1.04,27.2,7.12-8.04,13.76-16.53,21.27-24.23,8.95-9.07,17.55-18.47,26.63-27.42,2.04-1.95,3.99-4.11,6.55-5.39Z"/>
    <path class="cls-5" d="M636.47,105.32c1.8-3.28,3.72-6.49,5.76-9.63,1.72,4.02,3.93,7.85,5.03,12.12-3.14,.6-6.26,1.24-9.39,1.8,.45-1.57-.45-3.12-1.4-4.29Z"/>
    <path class="cls-5" d="M760.42,101.07c4.59-3.28,10.28-6.24,16.08-4.9,5.06,1.65,7.77,6.55,9.52,11.23,1.14,3.34,5.69,3.68,6.86,7.01,1.7,5.05,2.12,10.43,2.73,15.71-9.4,.16-18.8,.08-28.2,.03,3.14-3.99,7.06-7.42,9.54-11.89,1.14-4.43-.19-9.03-2.52-12.84-5.4,.9-9.87,4.32-13.75,7.98-5.34,5.15-10.69,10.46-14.4,16.96-3.75,.18-7.5,.25-11.24,.28,5.67-11.89,15.07-21.57,25.38-29.57Z"/>
    <path class="cls-5" d="M127.37,105.47c11.54-2.82,23.4-6.1,35.37-4.29,10.07,2.31,15.05,13.94,13.18,23.43-3.14-.7-6.27-1.39-9.42-2.05,0-4.38-.54-10.45-5.74-11.65-10.64-1.39-21.2,1.46-31.42,4.14-13.82,4.08-27.27,9.37-40.23,15.65-1.33,.67-2.68,1.34-3.85,2.27-.4,6.15,.04,12.35,.63,18.48,1.09,21.69,3.05,43.32,4.66,64.97,.81,6.36,.88,12.78,1.07,19.19,2.48-1.12,4.78-2.59,6.86-4.34,5.02-4.31,11.02-7.64,14.83-13.22,18.2-24.57,35.91-49.82,48.74-77.69,2.4,2.85,4.76,5.75,7.12,8.63-5,8.36-8.96,17.31-14.27,25.5-7.29,11.86-15.23,23.3-23.06,34.81,7.7-3.15,15.21-8.08,23.86-7.51,2.34-.16,4.46,.99,6.08,2.58,8.06,7.69,15,16.45,22.01,25.08,4.01,7.8,7.55,16.14,8.26,24.97-11.74-13.98-23.05-28.35-35.44-41.77-1.99-1.61-4.94-.8-7.2-.22-10.7,3.78-20.83,9.14-30.13,15.63-6.05,4.64-9.87,11.39-14.8,17.07-3.08,4.14-6.84,7.81-9.43,12.29-.6,9.39,.8,18.75,1.63,28.09,1.11,11.88,2.23,23.79,3.88,35.63,2.13,6.65,3.38,13.51,4.43,20.4,.47,2.54-1.43,4.83-3.39,6.18-4.09,1.5-6.86-2.91-7.51-6.35-2.61-12.16-3.67-24.59-5.53-36.88-.25-6.24-1.23-12.41-1.58-18.64-1.02-5.56-.51-11.28-1.84-16.8-7.43,7.23-13.54,15.66-20.89,22.96-4.52,5.12-9.01,10.27-13.92,15.04-10.96,11.7-22.21,23.14-33.91,34.09-2.27,2.14-5.11,4.66-8.49,3.61-1.74-.82-3.9-2.05-3.92-4.24-.77-6,2.91-11.17,5.93-15.97,15.89-23.28,35.01-44.14,55.1-63.83,5.85-5.34,11.15-11.3,17.44-16.16-.05-16.77-2.62-33.38-3.4-50.12-1.84-18.71-2.69-37.49-3.86-56.25-4.46,1.47-8.37,4.13-12.37,6.51-17.43,10.44-34.78,21.3-50.03,34.81-2.78,2.25-4.98,6.45-9.14,5.67-3.49-.03-4.52-4.33-3-6.91,1.83-3.01,4.64-5.23,7.27-7.49,14.05-12.04,29.61-22.11,45.38-31.7,7.09-4.6,14.76-8.21,21.83-12.82-.09-3.62-.16-7.25,.21-10.86,.31-3.47,4.96-6,7.72-3.46,2.95,2.34,1.73,6.49,2.02,9.73,13.81-6.08,27.7-12.12,42.26-16.19m-58.22,164.34c-14.55,14.75-28.9,29.83-41.26,46.5,11.7-11.55,23.19-23.33,33.92-35.79,6.27-6.37,11.74-13.43,17.63-20.13-3.54,3.01-7.02,6.11-10.29,9.42Z"/>
    <path class="cls-5" d="M484.25,142.43c8-9.47,15.41-20.74,27.44-25.38,4.17-.28,9.22-1.17,12.63,1.87,2.8,2.08,2.9,7.14-.12,9.07-2.74,2.6-5.65-1.24-8.39-2-2.08,.46-3.92,1.66-5.63,2.89-6.67,4.98-11.93,11.52-16.97,18.08-4.39,5.98-8.79,12-12.19,18.61,1.07-7.71,2.05-15.44,3.23-23.14Z"/>
    <path class="cls-5" d="M519.43,136.23c3.34-2.14,8.86-2.52,11.33,1.13,2.62,2.7,1.15,6.78,1.21,10.09,8.5-1.51,17.55-4.56,25.96-.96,7.99,3.34,10.8,12.98,10.14,20.95-1.21,7.52-2.68,15.13-6.03,22.03-5.45,12.37-11.74,25.31-23.03,33.38-7.61,5.68-18.99,5.9-26.35-.31-9.58-6.68-14.92-17.82-17.04-29.03-1.36-10.67-.61-21.89,4.31-31.62,4.11-10.06,10.52-19.38,19.5-25.66m-2.7,16.45c2.94-.83,5.79-1.92,8.69-2.88,0-.48-.02-1.44-.03-1.92-.94-.72-1.88-1.44-2.8-2.15-2.28,2.01-4.56,4.14-5.86,6.95m3.92,8.99c-3.78,1.28-5.33-3.32-6.84-5.82-5.37,8.88-9.55,19.01-8.86,29.58-.42,11.97,5.27,24.62,15.8,30.82,4.71,2,10.54,1.01,14.38-2.41,7.51-6.55,12.34-15.52,16.34-24.51,2.95-6.01,5.08-12.42,6.56-18.94,.24-4.07,.78-8.46-1.16-12.22-.92-1.93-2.83-3.6-5.07-3.43-10.85-.74-21.04,3.69-31.15,6.93Z"/>
    <path class="cls-5" d="M582.1,137.58c2.92,1.44,5.57,3.34,8.3,5.1-3.97,12-11.79,23.48-10.24,36.64-.11,1.67,1.05,2.99,2.53,3.58,5.67-.67,10.35-4.34,14.6-7.88,5.5-4.48,10.45-9.59,15.3-14.77-4.39,9.56-9.92,18.54-15.76,27.27-5.28,3.64-11.75,5.68-18.16,4.42-4.41-1.61-7.36-5.92-8.18-10.43-.9-6.73-.16-13.67,2.3-20.01,2.72-8.12,6.2-15.95,9.31-23.92Z"/>
    <path class="cls-5" d="M738.36,155.6c3.13-.84,6.44-.67,9.6,0-3.19,.42-6.43,.54-9.6,0Z"/>
    <path class="cls-5" d="M268.73,209.44c2.42-2.4,5.41-4.06,8.39-5.65-.91,4.42-1.68,8.88-2.68,13.29-6.35,7.08-11.66,15.09-15.36,23.86-3.22,7.77-6.88,15.73-6.82,24.32,7.13-5.36,12.31-12.96,16.65-20.65,3.55,.75,7.18,1.21,10.83,1.18-3.83,6.86-8.32,13.33-13.26,19.42-2.85,3.5-6.35,6.42-9.14,9.97,3.38-.2,6.73-.99,9.77-2.51,13.66-6.6,25.08-16.76,36.74-26.27,4.08,.41,8.19,.54,12.29,.57-1.44,2.45-3.27,4.65-5.49,6.43-13.23,10.73-26.17,22.43-42.06,29.12-4.5,1.55-9.51,3.35-14.22,1.58-2.23-.58-4.21-1.99-6.5-2.27-3.74,1.29-7.13,3.81-11.18,4.02-2.9-.71-5.55-3.22-5.32-6.37,1.93-5.07,8.52-3.38,12.09-6.66-2.53-9.07,.6-18.28,3.09-26.98,5.25-13.22,11.58-26.58,22.18-36.4Z"/>
    <path class="cls-5" d="M582.72,238.41c5.46-2.84,10.82-5.93,16.57-8.2-.21,1.75-.41,3.49-.66,5.23-11.51,12.14-23.19,24.12-34.33,36.6-7.01,7.92-14.52,15.4-20.97,23.8-4.24,.02-8.47,.01-12.71-.04,1.08-1.68,2.27-3.3,3.63-4.77,10.56-11.48,20.4-23.62,31.41-34.69,5.48-6.17,11.13-12.2,17.06-17.93Z"/>
    <path class="cls-5" d="M408.26,251.15c3.94,.03,7.89,.06,11.84,.11-6,9.84-13.44,18.81-21.86,26.69-5.29,4.83-11.39,9.36-18.53,10.86-4.84,.94-9.26-1.62-13.08-4.24,6.9,.05,13.81,.26,20.71,.03,.67-4.07,1.4-8.13,2.37-12.15,7.01-6.31,13.49-13.31,18.55-21.3Z"/>
    <path class="cls-5" d="M223.34,283.33c-.21-2.09,1.09-3.96,1.77-5.87,4.12,5.61,9.1,10.48,13.71,15.67-3.51-.49-7.14-.89-10.37-2.46-2.5-1.72-4.09-4.54-5.11-7.34Z"/>
    <path class="cls-5" d="M246.46,316.92c4.35-.1,8.7-.2,13.05-.22,7.51,8.52,14.93,17.11,22.1,25.92,3.81,4.76,8.26,9.08,11.21,14.47,1.38,2.83,.83,7.92-3.18,7.87-2.97,.6-4.64-2.36-6.19-4.34-3.47-5.08-7.42-9.79-11.54-14.35-8.32-9.92-16.38-20.09-25.45-29.35Z"/>
    <path class="cls-5" d="M506.57,324.24c1.97-2.53,4.05-4.97,6.3-7.25,4.01,0,8.02,.04,12.04,.07-8.8,10.84-17.45,21.79-26.15,32.7-1.1,0-2.19,.02-3.28,.03-.23,2.15-.41,4.32-.97,6.42-6.82,8.18-12.72,17.11-18.21,26.21l-6.11,8.5c-3.44,0-7.02-.12-10.46,0,1.66-4.73,10.5-17.13,13.04-21.39,10.55-15.62,22.18-30.47,33.8-45.29Z"/>
    <path class="cls-5" d="M460.35,389.45c3.48,.16,6.88-.02,10.37,0-2.89,6.79-7.56,14.88-9.13,22.17-.33,1.87-1.11,4.26,1.06,5.33,6.67-1.49,12.72-4.82,18.81-7.81,5.26-2.86,10.79-5.42,15.35-9.38,.35,3.86,.7,7.73,.68,11.61-8.92,5.31-18.09,10.29-27.88,13.78-3.8,1.29-7.97,1.31-11.9,.72-3.48-1.75-6.11-5.39-5.78-9.41-1.06-8.84,3.54-16.8,7.22-24.47,.15-.27,1.06-2.27,1.2-2.54Z"/>
  </g>
  <g id="_e8e8e8ff" data-name="#e8e8e8ff">
    <path class="cls-8" d="M645.46,7.22c6.65,6.21,12.24,13.43,18.12,20.34,3.83,5.46,9.82,9.09,12.86,15.17,1.08,2.25,4.14,4.96,2.08,7.49-3.52,4.46-7.62,8.41-11.19,12.82-8.32,10.92-17.47,21.22-25.1,32.65-2.04,3.14-3.96,6.35-5.76,9.63-1.37,1.35-1.14,4.96,1.4,4.29,3.13-.56,6.25-1.2,9.39-1.8,8.45-1.39,17-2.23,25.4-3.91,3.69-.48,4.38,4.68,2.78,7.09-6.75,13.92-13.4,27.93-20.7,41.56-2.16,7.63-4.18,15.3-6.1,23-1.7,5.97-3.09,12.02-4.6,18.04-5.27,22.05-11.32,43.92-15.86,66.14-2.09,11.9-3.73,23.88-6.6,35.62-.86,5.76-5.1,10.03-8.42,14.52-2.33,2.63-4.33,5.96-7.65,7.39-4.46,.61-8.99,.37-13.48,.38-3.73-.24-7.46-.45-11.2-.43-14.02-.09-28.04-.09-42.06-.16-4.62,0-9.24-.03-13.86,.01-4.02-.03-8.03-.07-12.04-.07-26.05-.08-52.1-.23-78.15-.34-16.32-.73-32.67-.42-49-.57-42.07-.09-84.15-.39-126.21,.62-4.35,.02-8.7,.12-13.05,.22-7.91,.11-15.81,0-23.72,.09-3.83,.13-7.97-.02-11.34,2.11-5.25,3.25-10.54,6.6-14.68,11.25-8.45-5-16.25-11.04-24.45-16.44-6.47-4.65-13.39-8.7-19.51-13.82,2.76-1.75,5.39-3.69,7.88-5.8,3.81-3.27,8.67-5.12,12.13-8.82,6.38-7.29,14.09-13.64,18.5-22.44,1.1-2.74,.81-5.75,.78-8.63-.71-8.83-4.25-17.17-8.26-24.97-1.24-3.21-2.28-6.49-3.44-9.72,8.3-8,14.56-17.79,21.27-27.09-5.67-8.35-11.42-16.64-17.23-24.89-4.62-6.61-10.13-12.52-15.22-18.76-2.36-2.88-4.72-5.78-7.12-8.63-6.14-7.31-12.04-14.83-17.95-22.33,7.46,1.54,14.95,2.97,22.4,4.53,3.15,.66,6.28,1.35,9.42,2.05,15.64,3.04,31.81,4.39,47.67,2.35,7.72,0,15.36-1.25,23.08-1.54,6.43,6.45,13.62,12.13,19.7,18.96-.21,1.59,.19,3.35-.62,4.81-2.76,5.16-6.43,9.76-9.56,14.7-5.38,8.63-10.74,17.28-16.07,25.95-1.93,2.72-1,6.26-.67,9.33,1.5,7.07,2.33,14.29,4.4,21.25,.88,2.91,1.13,6.09-.02,8.98-3.53,10.23-8.12,20.07-11.92,30.2-2.32,5.94-4.29,12.01-6.8,17.86-.68,1.91-1.98,3.78-1.77,5.87,1.02,2.8,2.61,5.62,5.11,7.34,3.23,1.57,6.86,1.97,10.37,2.46,10.63,.4,21.26-.6,31.9-.43,16,0,32-.02,48,.34,21.97-.82,44-.07,65.99-.06,4.42-.3,8.56,1.7,12.95,1.66,21.7,.3,43.41,.08,65.11,.13,9.32,.22,18.62,1.1,27.95,.89,13.31-.19,26.6,.67,39.9,.14,4.24,.05,8.47,.06,12.71,.04,13.1-.09,26.24,.26,39.31-.79,2.89,.05,3.93-3.03,4.5-5.32,2.27-9.35,4.07-18.81,6.62-28.09,1.79-8.7,3.3-17.46,4.87-26.2,.25-1.74,.45-3.48,.66-5.23-5.75,2.27-11.11,5.36-16.57,8.2-10.68,5.04-21.18,10.55-32.29,14.62-1.62,.62-3.31,.02-4.92-.22,7.7-7.86,15.47-15.7,22-24.59,9.92-13.45,20.11-26.74,29.32-40.7,5.84-8.73,11.37-17.71,15.76-27.27,4.82-8.48,8.92-17.34,13.03-26.18-1.98,.63-3.97,1.2-5.99,1.6-6.87,.85-12.82,4.76-19.51,6.29-3.2,.71-6.78,3.56-9.72,.72-2.73-1.76-5.38-3.66-8.3-5.1-2.61-1.39-5.61-2.44-7.61-4.69-.83-6.45-.28-12.99-.85-19.46-.18-6.27-.92-12.99,1.85-18.84,8.47,1.76,16.64,5.34,25.35,5.71,5.01-7.2,10.04-14.39,15.05-21.6,12.15-18.72,21.19-39.44,26.87-61.02,.92-3.48,1.53-7.04,2.7-10.46Z"/>
    <path class="cls-8" d="M469.13,24.84c2.5-1.95,4.01-4.93,6.65-6.69,4.87,.77,8.62,4.21,13,6.2,3.65,1.72,7.76,4.56,7.91,9.01,.75,6.85,1.08,13.78,.66,20.66-3.86,2.24-7.79,4.33-11.72,6.44-2.6,1.28-4.11,3.95-6.66,5.3-10,5.62-20.01,11.22-29.97,16.9-3.22,1.72-6.35,4.24-10.22,3.93-8.85-.06-17.7,.17-26.54,.04,3.87-5.88,9.33-10.46,13.74-15.92,13.46-16.12,27.45-31.87,43.15-45.87Z"/>
    <path class="cls-8" d="M731.75,58.51c1.46-.95,3.24-.85,4.91-.88,26.69,.02,53.37-.02,80.06-.04,23.74,.11,47.46-.52,71.2-.37,3.86,.02,7.73,0,11.6-.03,3.17,.12,6.57-.5,9.54,.95,2.49,1.18,4.87,2.6,7.24,4.02-4.51,4.1-9.19,8.02-13.84,11.95-1.61,1.61-3.92,1.74-6.04,1.64-5.29,0-10.58,.01-15.86,.08-38.2,.48-76.41,.31-114.61,.49-4.7-.03-9.4-.06-14.07,.29-9.37-.11-18.75,.26-28.1-.04-2.66-2.82-3.73-6.69-5.22-10.18,4.37-2.67,8.73-5.36,13.19-7.88Z"/>
    <path class="cls-8" d="M819.95,301.57c-1.59,2.16-22.21,23.84-21.51,22.51,9.84-18.66,39.55-48.12,8.35,.1-.14,.09-.33,.21-.54,.34-.47,.3-1.01,.47-1.56,.51-7.55,.46-15.13-.03-22.68,.03-.07,0-.13,0-.2,0-14.65-.99-29.39-.14-44.04-.72-.82-.03-1.61-.36-2.19-.95-4.73-4.77-8.22-10.62-12.31-15.92-1.42-2.21-3.99-4.42-3.01-7.32,.38-2.46,2.69-4.29,5.1-4.53,9.17-.74,18.4-.12,27.56-.98,9.69-.68,19.43-.1,29.1-1.01,1.42-.13,2.6-1.14,2.92-2.53,9.97-42.66,20.42-85.22,30.66-127.82,.49-2.06-1.05-4.05-3.17-4.07-23.42-.26-46.84,.25-70.24-.05-.25,0-.5-.03-.74-.09-7.31-1.68-11.98-7.94-16.65-13.49-1.04-1.23-1.06-3.04,0-4.26,.19-.23,.39-.45,.59-.67,.31-.35,.7-.62,1.12-.81,4.31-1.93,8.54-4.55,13.4-4.56,4.1-.12,8.21-.1,12.32-.25,3.74-.03,7.49-.1,11.24-.28,7.04-.14,14.09-.05,21.13-.21,9.4,.05,18.8,.13,28.2-.03,3.6,.02,7.22,.02,10.83-.03,3.65,.01,7.31,.01,10.98,0,8.37,0,16.74,0,25.11-.09,5.01,.03,10.02,0,15.04-.05,9.84,.04,19.68-.05,29.53-.09l.97,.03c.98,.31,1.92,.69,2.86,1.11,2.15,.97,2.63,3.82,.9,5.42-.68,.63-1.35,1.25-2.02,1.88-3.7,3.39-7.61,6.54-11.26,9.97-3.98,3.86-9.68,6.29-15.23,5.1-.37-.08-.74-.1-1.12-.05-5.45,.71-10.94,.37-16.42,.34-1.48,0-2.8,.96-3.21,2.39-13.53,46.97-26.31,94.16-39.81,141.13l-6.06,3.96c-8.93-1.2-18.01-.58-27-.82"/>
    <path class="cls-8" d="M495.48,349.79c1.09-.01,2.18-.02,3.28-.03,3.42-.02,6.85,0,10.28-.02-.53,10.4,1.21,20.69,.74,31.09,.01,.61,.03,1.83,.04,2.44-.01,2.74-.1,5.5,.03,8.25,.09,.92,.26,2.76,.35,3.68,2.13-1.73,3.57-4.06,4.62-6.56,.6-1.32,1.22-2.64,1.85-3.95,.44-.89,.86-1.79,1.29-2.69,5.02-10.86,10.37-21.57,15.69-32.28,3.94,.07,7.88,0,11.83,.02,.43,.02,1.28,.04,1.71,.06,.1,2.68,.11,5.37,.2,8.06,.18,4.64,.49,9.28,.65,13.92,.11,3.25,.24,6.51,.33,9.77,.03,1.74,.06,3.49,.16,5.23,.06,1.14,.15,2.29,.27,3.44,.09,.91,.28,2.74,.38,3.66,.94-.49,1.88-.99,2.81-1.51,.99-2.21,1.86-4.48,2.82-6.7,.7-1.68,1.47-3.32,2.26-4.95,4.25-9.05,8.09-18.3,12.48-27.29,.61-1.2,1.2-2.4,1.79-3.6,2.87-.07,5.74-.15,8.62-.14,1.48,.07,2.97,.13,4.46,.32-1.42,2.4-2.68,4.89-3.81,7.45-3.83,7.99-8.09,15.79-11.31,24.06-.56,1.23-1.14,2.45-1.72,3.67-.2,.38-.59,1.14-.78,1.52-.42,.78-.83,1.58-1.23,2.38-.24,.47-.71,1.42-.95,1.89-.2,.43-.61,1.27-.81,1.7-.25,.54-.75,1.61-1,2.15-.8,1.7-1.59,3.4-2.42,5.09-.84,1.68-1.7,3.34-2.53,5.03-.72,1.45-1.41,2.91-2.07,4.39-.55,1.24-1.07,2.49-1.59,3.75-1.28,0-2.55,.01-3.82,.02-1.64-.01-3.28-.01-4.92,0-1.35-.01-2.69-.01-4.03-.01-.96-.01-1.92-.01-2.86-.01-.07-5.52,.01-11.07-.87-16.53-.29-4.82,.03-9.65-.27-14.46-.09-.88-.18-1.75-.28-2.61-.49-3.83-.7-7.68-.87-11.53l-.45,.49c-.24,.24-.74,.73-.98,.98-.79,1.23-1.46,2.53-2.14,3.83-1.2,2.18-2.31,4.42-3.4,6.66-2.12,4.53-4.3,9.04-6.6,13.48-3.44,6.39-6.54,12.94-9.78,19.43-5.11,.64-10.3,.05-15.44,.28v-1.74c.02-3.88-.33-7.75-.68-11.61-.2-2.73-.2-5.46-.25-8.19-.29-6.78,.36-13.6-.61-20.34-.77-5.26-.27-10.58-.7-15.85l-.74,.83c.56-2.1,.74-4.27,.97-6.42Z"/>
    <path class="cls-8" d="M591.62,349.99c4.59-.23,9.45-.96,13.9,.56-.46,1.53-.9,3.07-1.28,4.63-.42,1.71-.8,3.44-1.12,5.18l-.17,.95c-.36,1.89-.7,3.79-1.04,5.68-.07,.37-.2,1.1-.27,1.46-.38,1.67-.82,3.32-1.18,4.99-.58,2.66-1.17,5.32-1.76,7.99-.96,4.39-1.89,8.79-2.71,13.22-.34,2-.58,4.02-.79,6.05,3.74,.17,7.48,.18,11.23,.17,2.36,.01,4.73,.06,7.1,.08,2.39-.27,5.41,.61,7.26-1.36,1.5-2.91,1.55-6.29,2.15-9.44l.16-.81c.16-.82,.32-1.63,.49-2.43l.15-.75c.2-1.06,.41-2.11,.63-3.16l.17-.89c.4-1.78,.84-3.55,1.26-5.32,.49-2.24,1-4.47,1.44-6.72,.12-.63,.36-1.88,.48-2.51,1.09-5.82,2.85-11.53,3.4-17.45,1.19-.21,2.39-.32,3.61-.37,.71,0,2.12,0,2.82-.02,1.63,0,3.26,.02,4.91,.01,.5-.01,1.52-.02,2.03-.02-.4,1.44-.83,2.87-1.14,4.34-.79,4.3-1.66,8.57-2.54,12.85-1.01,4.09-1.91,8.2-2.73,12.34-.11,.57-.34,1.7-.45,2.27-.66,3.05-1.33,6.11-1.91,9.18-1.37,7.5-2.35,15.54-7.61,21.48-1.46,.23-2.9,.51-4.35,.73-3.54,.26-7.1,.25-10.64,.28-9.13-.19-18.26,.07-27.38-.14-.5-.25-1.51-.76-2.02-1.01-.85-.44-1.69-.89-2.53-1.34-.22-2.68-.29-5.36-.16-8.05,.61-3.49,1.38-6.95,2.1-10.42,.92-4.2,1.81-8.41,2.69-12.62,.79-3.35,1.41-6.73,2.02-10.11,.27-1.49,.54-2.97,.85-4.44l.21-.85c.38-1.54,.75-3.09,1.09-4.63,.51-2.61,.99-5.23,1.35-7.86,.07-.43,.21-1.29,.28-1.72Z"/>
    <path class="cls-8" d="M654.89,349.83c5.01-.14,10.03-.05,15.05-.09,1.59,10.72,3.87,21.32,5.84,31.97,.25,1.8,.49,3.6,.82,5.39,.27,1.5,.58,3,.99,4.48,.46,.83,1.06,1.55,1.81,2.18,1.91-2.94,3.52-6.06,5.32-9.06,.63-1.06,1.25-2.12,1.89-3.17,6.36-10.64,12.99-21.11,19.27-31.79,4.76,.01,9.52,.04,14.28-.02-2.6,9.83-4.19,19.89-6.53,29.78-1.11,4.51-1.92,9.07-2.78,13.63-1.33,6.62-2.87,13.21-3.94,19.88-3.63,.12-7.26,.08-10.89,.08,.76-5.9,2.36-11.67,3.67-17.46,.64-2.62,1.04-5.29,1.48-7.94,.44-2.46,1.06-4.88,1.33-7.37,.08-.88,.23-2.64,.3-3.53-1.75,1.25-3.09,2.93-4.2,4.75-.63,1-1.23,2.01-1.81,3.04-1.42,2.49-2.8,5-4.29,7.46-4.22,6.85-8.48,13.69-12.57,20.62-3.33,1.02-7.12,.15-10.63,.44-1.11-5.97-2.38-11.92-3.54-17.88-.25-1.18-.5-2.35-.7-3.52-.44-2.47-.82-4.95-1.27-7.42-.23-1.36-.51-2.71-.76-4.05-.12-.72-.37-2.16-.5-2.88-.67,.05-2,.15-2.67,.2-.06,.44-.19,1.31-.26,1.74-.28,1.63-.59,3.26-.85,4.9-.41,2.2-.81,4.4-1.2,6.61-1.31,7.5-3.57,14.8-4.67,22.34-3.62-.11-7.24-.08-10.85-.11,.29-1.79,.58-3.58,.97-5.35,1.14-4.39,2.08-8.82,2.82-13.28,.6-2.83,1.32-5.63,1.88-8.46,.26-1.45,.51-2.9,.74-4.34,.09-.54,.26-1.6,.35-2.13,1.09-4.59,2.14-9.18,3.06-13.8,1.09-5.27,2.17-10.54,3.04-15.84Z"/>
    <path class="cls-8" d="M731.49,349.74c4.47,.02,8.95,.02,13.43,0-2.17,10.17-4.28,20.36-6.41,30.54-.32,1.31-.62,2.62-.86,3.95-.52,2.56-1.05,5.12-1.58,7.68-1.13,7.11-3.35,14.02-4.18,21.18-4.5,0-9-.02-13.5,.02,1.55-5.17,1.88-10.61,3.39-15.79,1.01-4.54,1.79-9.14,2.97-13.65,.57-2.32,.8-4.71,1.23-7.05,1.99-8.93,3.7-17.92,5.51-26.88Z"/>
    <path class="cls-8" d="M756.82,349.79c4.33-.05,8.66-.06,13-.01,2.82,6.25,6.64,11.98,9.63,18.14,1.77,3.47,3.77,6.82,5.58,10.27,.52,1.03,1.04,2.07,1.58,3.11,1.15,2.26,2.6,4.36,4.12,6.4,.97-2.93,1.68-5.94,2.15-8.99,.56-3.05,1.23-6.08,1.89-9.11,1.46-5.96,2.86-11.95,3.48-18.06,.23-.45,.67-1.35,.89-1.8,4.15,.03,8.31,.03,12.46-.05-.88,3.59-1.63,7.21-2.41,10.82-1.53,6.73-2.87,13.5-4.24,20.27-.39,1.91-.74,3.83-1.08,5.75-.28,1.37-.55,2.75-.83,4.12-.13,.57-.4,1.71-.53,2.28-.71,2.82-1.32,5.68-1.85,8.54-.56,2.53-1.2,5.04-1.66,7.59-.24,1.3-.44,2.6-.59,3.92-1.25,.03-2.49,.07-3.73,.1-1.56,.04-3.11,.11-4.65,.21-4.4-6.1-7.76-12.87-11.5-19.38-.22-.39-.64-1.17-.85-1.55-1.59-2.89-3.09-5.81-4.66-8.7-1.33-2.45-2.88-4.76-4.32-7.14-.73-1.31-1.48-2.59-2.22-3.87-.52-.04-1.55-.11-2.06-.14-.43,2.24-.89,4.48-1.35,6.72-.12,.57-.35,1.71-.47,2.29-.72,3.28-1.36,6.59-2.02,9.89l-.2,.99c-.09,.43-.25,1.29-.34,1.72-1.64,6.25-2.56,12.66-3.94,18.97-4.04,0-8.07-.02-12.1,.04,.45-6.32,2.41-12.4,3.71-18.58,.56-2.38,.9-4.81,1.31-7.21,.26-1.56,.59-3.1,.96-4.63,2.53-10.92,4.61-21.94,6.84-32.92Z"/>
    <path class="cls-8" d="M827.94,349.99c7.36-.49,14.75-.11,22.13-.3,6.8,.23,13.61-.14,20.41,.13,.13,.66,.4,1.98,.54,2.64-.59,1.45-1.01,2.96-1.32,4.49-.37,1.62-.69,3.24-1,4.87-2.08-.02-4.15-.03-6.22-.03-1.31,0-2.61,0-3.9,0-8.39,.33-16.93-.95-25.2,.81-.26,.06-.79,.2-1.05,.27-.41,2.1-.78,4.21-1.18,6.31-.64,3.04-1.32,6.08-1.9,9.14-1.24,6.98-3.55,13.76-4.23,20.85,.22,.42,.65,1.28,.86,1.7,7.47,.21,14.95,0,22.42,.08,.93-3.52,1.77-7.06,2.46-10.64,.27-1.33,.53-2.66,.81-3.98-4.16-.23-8.33-.24-12.49-.16,.41-2.15,.78-4.3,1.19-6.44,.25-1,.59-1.97,1.01-2.91,2.47-.53,5.01-.44,7.53-.5,2.71-.02,5.43-.04,8.16,0,1.25,.05,2.51,.07,3.78,.09,1.77,0,3.55,0,5.34,.02-.37,1.82-.7,3.64-1.01,5.47-.29,1.48-.62,2.96-.94,4.44-.46,1.89-.94,3.79-1.33,5.7-1.24,7.04-2.93,13.98-4.24,21-2.49,.03-4.96,.08-7.43,.1-10.64,.01-21.29-.25-31.92,.16-3.63-.16-8.27-1.36-8.59-5.73,.13-4.62,1.26-9.13,2.29-13.61,.87-4.49,1.67-9,2.74-13.45,.96-4.08,1.71-8.2,2.46-12.32,.81-3.98,1.63-7.96,2.85-11.83,1.85-2.58,4.12-4.91,6.97-6.38Z"/>
  </g>
  <g id="_e7e7e7fe" data-name="#e7e7e7fe">
    <path class="cls-7" d="M186.65,9.07c2.39,.59,4.73,1.37,6.91,2.52,18.86,9.68,36.7,21.16,54.75,32.25,4.73,3.05,9.94,5.23,14.65,8.33,6.68,4.31,14.11,7.57,20.01,13.02,3.84,3.95,2.73,10.11,.93,14.76-2.9,6.04-6.26,11.94-10.59,17.09-2.75,3.25-5.86,7.09-10.59,6.88-6.38-.15-10.25-6.01-14.29-10.18-14.39-14.87-25.44-32.5-38.64-48.37-7.93-9.4-14.73-19.7-20.69-30.45-1.01-1.86-1.8-3.83-2.45-5.85Z"/>
  </g>
  <g id="_e6e6e6fd" data-name="#e6e6e6fd">
    <path class="cls-6" d="M317.76,30.45c1.62-4.83,2.92-9.78,4.65-14.58,10.28-.02,20.71-.59,30.9,.96,1.56,9.06,4.27,17.85,6.53,26.74,2.09,9.33,4.08,18.68,5.99,28.05,1.01,3.96-.59,7.99-2.47,11.43-1.02,2-3.4,3.13-5.59,2.7-3.2-1.77-6.1-4.14-8.2-7.16-5.38-7.61-10.82-15.17-16.31-22.71-2.27-3.35-5.84-5.5-8.1-8.86-2.47-3.54-5.07-6.99-7.5-10.56-1.55-1.74-.4-4.08,.1-6.01Z"/>
    <path class="cls-6" d="M409.7,91.6c10.65-.34,21.33-.83,31.96,.02,11.35-.47,22.71-.19,34.07-.37,5.98-.03,11.99-.46,17.95-.05,4.09,1.44,7.78,3.79,11.68,5.66,.05,.32,.16,.98,.21,1.31-5.39,4.73-11.07,9.19-17.19,12.95-2.42,1.3-3.95,3.61-5.6,5.7-17.7,.29-35.4,.04-53.1,.02-2.51,.09-5.24-.24-7.45,1.21-.87,1.81-.98,3.84-1.36,5.77-4.2,23.87-8.44,47.74-12.66,71.61-.39,2.45-.79,4.9-1.02,7.38,7.66,.1,15.25,1.28,22.93,1.11,5.33-4.66,4.23-12.33,5.66-18.6,.05,2.09,.19,4.19,.34,6.28,1.43-9.28,2.03-18.67,2.24-28.05,.97-5.81,1.79-11.63,2.49-17.48,.33-4.42,1.07-8.8,1.57-13.21,14.24,.29,28.44,1.69,42.69,1.91-.22,2.56-.52,5.11-.86,7.66-1.18,7.7-2.16,15.43-3.23,23.14-3.25,22.82-6.37,45.65-9.57,68.47-.9,5.5-1.24,11.12-2.57,16.53-4.12,2.4-9.22,.75-13.76,1.18-3.47,0-6.93,.07-10.39,.09-8.22,.15-16.41-.83-24.63-.58-3.95-.05-7.9-.08-11.84-.11-4.28,.55-10.54-1.96-13.03,2.84-2.78,5.81-3.82,12.28-5.52,18.46-.97,4.02-1.7,8.08-2.37,12.15-6.9,.23-13.81,.02-20.71-.03-12.8-.58-25.62-.23-38.43-.41,1.49-8.21,3.29-16.37,4.45-24.63,.36-3.98,.89-8.87-2.22-11.92-4.59-1.22-9.55-.37-14.29-.64-4.1-.03-8.21-.16-12.29-.57-8.01-.84-16.07-.92-24.11-.61-3.65,.03-7.28-.43-10.83-1.18,2.24-9.09,3.65-18.36,5.53-27.53,1-4.41,1.77-8.87,2.68-13.29,.85-3.72,1.33-7.51,2.33-11.19,4.52-15.71,8.26-31.64,11.5-47.66,.81-4.65,2.98-9.24,2.29-14.04,14.25-2.11,28.67-1.07,43.02-1.27-3.6,14.37-5.66,29.15-9.66,43.41-4.26,8.31-5.83,17.78-5.64,27.05,.61,0,1.82-.02,2.42-.03,6.4,.02,12.84,1.59,19.24,.63,4.23-6.47,4.01-14.67,5.72-22,1.1-4.28,1.43-8.72,2.45-13.03,2.55-15.11,4.46-30.32,7.02-45.43,.38-2.11,.62-4.25,.87-6.38-19.34,.02-38.68-.46-58.02,.23-1.79-.13-4.05,.35-5.31-1.28-3.64-4.06-6.06-9.11-10.34-12.61,5.06-3.1,9.87-7.24,15.75-8.57,36.31-.01,72.63,.01,108.94-.02Z"/>
  </g>
  <g id="_cc2560fe" data-name="#cc2560fe">
    <path class="cls-5" d="M353.87,134.55c.65-4.87,.66-10.33,3.94-14.32-2.56,15.11-4.47,30.32-7.02,45.43,1-10.38,1.28-20.82,3.08-31.11Z"/>
    <path class="cls-5" d="M431.5,144.6c2.61-3.51,7.16-1.3,9.35,1.47-.7,5.85-1.52,11.67-2.49,17.48-.66,3.82-1.26,7.66-2.06,11.46-2.02-4.86-2.56-10.13-3.89-15.18-1.2-4.93-2.33-10.25-.91-15.23Z"/>
  </g>
  <g id="_85858593" data-name="#85858593">
    <path class="cls-3" d="M237.33,124.21c3.11-.4,6.87-1.33,9.34,1.21-7.72,.29-15.36,1.55-23.08,1.54,4.52-1.17,9.17-1.8,13.74-2.75Z"/>
  </g>
  <g id="_999999a9" data-name="#999999a9">
    <path class="cls-1" d="M290.42,136.99c.55-2.16,.52-4.94,2.82-6.09,.69,4.8-1.48,9.39-2.29,14.04-3.24,16.02-6.98,31.95-11.5,47.66,3.16-18.62,7.62-37.01,10.97-55.61Z"/>
  </g>
  <g id="_ba8e9dd5" data-name="#ba8e9dd5">
    <path class="cls-2" d="M436.3,175.01c.8-3.8,1.4-7.64,2.06-11.46-.21,9.38-.81,18.77-2.24,28.05-.15-2.09-.29-4.19-.34-6.28,.25-3.44,.24-6.89,.52-10.31Z"/>
  </g>
  <g id="_9e9e9eaf" data-name="#9e9e9eaf">
    <path class="cls-4" d="M320.96,200.09c-.19-9.27,1.38-18.74,5.64-27.05-.42,9.09-5.3,17.84-3.22,27.02-.6,.01-1.81,.02-2.42,.03Z"/>
  </g>
</svg>